<svg width="40" height="40" viewBox="0 0 40 40" fill="none" xmlns="http://www.w3.org/2000/svg">
<path d="M32.4583 0.5C33.663 4.85175 35.2132 6.33917 39.5 7.54167C35.2132 8.74417 33.663 10.2316 32.4583 14.5833C31.2537 10.2316 29.7034 8.74417 25.4167 7.54167C29.7034 6.33917 31.2537 4.85175 32.4583 0.5ZM32.4583 18.9167C33.663 23.2684 35.2132 24.7558 39.5 25.9583C35.2132 27.1608 33.663 28.6483 32.4583 33C31.2537 28.6483 29.7034 27.1608 25.4167 25.9583C29.7034 24.7558 31.2537 23.2684 32.4583 18.9167ZM21.0833 7.54167C16.7966 6.33917 15.2463 4.85175 14.0417 0.5C12.837 4.85175 11.2867 6.33917 7 7.54167C11.2867 8.74417 12.837 10.2316 14.0417 14.5833C15.2463 10.2316 16.7966 8.74417 21.0833 7.54167Z" fill="black"/>
<path fill-rule="evenodd" clip-rule="evenodd" d="M7.21666 38.9106L7.46582 38.6614L7.48099 38.6473L27.1348 18.9935C27.541 18.5872 27.7692 18.0362 27.7692 17.4617C27.7692 16.8871 27.541 16.3361 27.1348 15.9298L24.0701 12.8651C23.6638 12.4589 23.1128 12.2307 22.5382 12.2307C21.9637 12.2307 21.4127 12.4589 21.0064 12.8651L1.08932 32.7833C0.683134 33.1896 0.454952 33.7406 0.454952 34.3151C0.454952 34.8896 0.683134 35.4406 1.08932 35.8469L4.15299 38.9117C4.3542 39.113 4.59309 39.2726 4.85602 39.3816C5.11894 39.4905 5.40076 39.5466 5.68536 39.5466C5.96997 39.5466 6.25179 39.4905 6.51472 39.3816C6.77765 39.2726 7.01653 39.113 7.21774 38.9117M21.5004 21.5643L25.603 17.4617L22.5393 14.3969L18.4357 18.5006L21.5004 21.5643Z" fill="black"/>
</svg>
