<svg width="52" height="52" viewBox="0 0 52 52" fill="none" xmlns="http://www.w3.org/2000/svg">
<path d="M38.4583 6.5C39.663 10.8518 41.2132 12.3392 45.5 13.5417C41.2132 14.7442 39.663 16.2316 38.4583 20.5833C37.2537 16.2316 35.7034 14.7442 31.4167 13.5417C35.7034 12.3392 37.2537 10.8518 38.4583 6.5ZM38.4583 24.9167C39.663 29.2684 41.2132 30.7558 45.5 31.9583C41.2132 33.1608 39.663 34.6483 38.4583 39C37.2537 34.6483 35.7034 33.1608 31.4167 31.9583C35.7034 30.7558 37.2537 29.2684 38.4583 24.9167ZM27.0833 13.5417C22.7966 12.3392 21.2463 10.8518 20.0417 6.5C18.837 10.8518 17.2867 12.3392 13 13.5417C17.2867 14.7442 18.837 16.2316 20.0417 20.5833C21.2463 16.2316 22.7966 14.7442 27.0833 13.5417Z" fill="black"/>
<path fill-rule="evenodd" clip-rule="evenodd" d="M13.2167 44.9106L13.4658 44.6614L13.481 44.6473L33.1348 24.9935C33.541 24.5872 33.7692 24.0362 33.7692 23.4617C33.7692 22.8871 33.541 22.3361 33.1348 21.9298L30.0701 18.8651C29.6638 18.4589 29.1128 18.2307 28.5382 18.2307C27.9637 18.2307 27.4127 18.4589 27.0064 18.8651L7.08932 38.7833C6.68313 39.1896 6.45495 39.7406 6.45495 40.3151C6.45495 40.8896 6.68313 41.4406 7.08932 41.8469L10.153 44.9117C10.3542 45.113 10.5931 45.2726 10.856 45.3816C11.1189 45.4905 11.4008 45.5466 11.6854 45.5466C11.97 45.5466 12.2518 45.4905 12.5147 45.3816C12.7776 45.2726 13.0165 45.113 13.2177 44.9117M27.5004 27.5643L31.603 23.4617L28.5393 20.3969L24.4357 24.5006L27.5004 27.5643Z" fill="black"/>
</svg>
